<?xml version="1.0" encoding="UTF-8"?>
<svg xmlns="http://www.w3.org/2000/svg" viewBox="0 0 413.84 79.86">
  <g>
    <rect width="413.84" height="79.86" rx="5.19" ry="5.19" fill="#f0efef"/>
  </g>
  <g>
    <g>
      <path d="m52.69,42.68c1.04,0,2.07-.13,3.07-.38l.34,2.3c-1.12.29-2.27.44-3.42.43-5.26,0-6.78-3.28-6.78-7.13s2.31-6.9,6.75-6.9c1.16,0,2.3.16,3.42.46l-.46,2.29c-.94-.23-1.91-.34-2.88-.34-2.79.05-4.16,2.11-4.21,4.52s.95,4.75,4.17,4.75Z" fill="#023037"/>
      <path d="m63.47,31.01c4.33,0,6.25,3.24,6.25,7s-1.66,7-6.28,7-6.25-3.32-6.25-7,1.94-6.95,6.28-7Zm0,11.69c2.76,0,3.65-2.26,3.65-4.68,0-2.21-1-4.71-3.68-4.71s-3.68,2.48-3.68,4.71c-.01,2.52,1.1,4.68,3.71,4.68Z" fill="#023037"/>
      <path d="m87.62,44.77v-8.65c0-2.18-.81-2.78-2.18-2.78-1.12.09-2.18.56-3,1.32,0,.29.07.86.07,1v9.08h-2.65v-8.72c0-2.18-.65-2.71-2-2.71-1.14.14-2.22.61-3.1,1.35v10.11h-2.69v-13.47h2.67v1.1c1-.84,2.23-1.33,3.53-1.42,1.88,0,3,.63,3.56,1.64,1.11-.99,2.52-1.56,4-1.64,4.41-.07,4.47,3.46,4.47,5v8.84l-2.68-.05Z" fill="#023037"/>
      <path d="m108.78,44.77v-8.65c0-2.18-.81-2.78-2.19-2.78-1.12.09-2.18.56-3,1.32,0,.29.07.86.07,1v9.08h-2.7v-8.72c0-2.18-.65-2.71-2-2.71-1.14.14-2.22.61-3.11,1.35v10.11h-2.63v-13.47h2.67v1.1c1.01-.84,2.27-1.34,3.58-1.42,1.87,0,3,.63,3.56,1.64,1.11-.99,2.52-1.56,4-1.64,4.4-.07,4.47,3.46,4.47,5v8.84l-2.72-.05Z" fill="#023037"/>
      <path d="m123.9,42.3l.41,2.19c-1.35.4-2.75.6-4.16.6-5.34,0-6.64-3.58-6.64-7.15s1.59-6.89,6.06-6.89c2.77,0,5.07,1.7,5.1,6v1.41h-8.51c0,2.64,1.47,4.25,4.14,4.25,1.21,0,2.42-.13,3.6-.41Zm-7.64-5.86h5.94c-.1-2.73-1.47-3.29-2.74-3.29-1.99-.03-2.99,1.34-3.2,3.28h0Z" fill="#023037"/>
      <path d="m134.47,33.72c-.57-.13-1.15-.2-1.73-.19-1.21-.02-2.37.51-3.15,1.44v9.8h-2.66v-13.47h2.66v1.2c.82-.86,1.95-1.35,3.13-1.37.76-.02,1.52.1,2.24.36l-.49,2.23Z" fill="#023037"/>
      <path d="m142.29,42.68c1.04,0,2.07-.13,3.08-.38l.33,2.3c-1.11.29-2.26.44-3.41.43-5.27,0-6.79-3.28-6.79-7.13s2.31-6.92,6.76-6.92c1.16,0,2.3.16,3.42.46l-.46,2.29c-.95-.23-1.92-.34-2.89-.34-2.79.05-4.16,2.11-4.2,4.52-.04,2.41.89,4.77,4.16,4.77Z" fill="#023037"/>
      <path d="m157.18,42.3l.4,2.19c-1.35.4-2.75.6-4.16.6-5.33,0-6.63-3.58-6.63-7.15s1.59-6.89,6.06-6.89c2.76,0,5.07,1.7,5.1,6v1.41h-8.51c.05,2.64,1.46,4.25,4.13,4.25,1.22,0,2.43-.13,3.61-.41Zm-7.65-5.86h5.94c-.09-2.73-1.46-3.29-2.74-3.29-2.02-.03-2.96,1.34-3.2,3.28h0Z" fill="#023037"/>
      <path d="m166.98,33.46h-3.68v6.55c0,1.37.17,2.33,1.57,2.52.78.05,1.56.02,2.33-.09l.17,2.3c-.79.12-1.58.17-2.38.17-3.15-.12-4.33-1.73-4.33-4.25v-7.2h-1.95v-1.85l1.95-.22v-3.09h2.64v3h3.68v2.21-.05Z" fill="#023037"/>
      <path d="m174.75,31.01c4.33,0,6.25,3.24,6.25,7s-1.65,7-6.27,7-6.25-3.32-6.25-7,1.99-6.95,6.27-7Zm0,11.69c2.77,0,3.66-2.26,3.66-4.68,0-2.21-1-4.71-3.68-4.71s-3.68,2.48-3.68,4.71c0,2.52,1.11,4.68,3.7,4.68Z" fill="#023037"/>
      <path d="m189.13,31.01c4.33,0,6.25,3.24,6.25,7s-1.66,7-6.28,7-6.25-3.32-6.25-7,1.95-6.95,6.28-7Zm0,11.69c2.76,0,3.65-2.26,3.65-4.68,0-2.21-1-4.71-3.68-4.71s-3.63,2.48-3.63,4.71c0,2.52,1.06,4.68,3.66,4.68Z" fill="#023037"/>
      <path d="m197.47,44.77v-18.35h2.57v18.35h-2.57Z" fill="#023037"/>
      <path d="m202.78,42.15c1.25.33,2.54.53,3.83.58,1.06,0,2.14-.22,2.21-1.49s-1.32-1.76-2.91-2.43c-1.8-.74-3.75-1.75-3.7-4.25,0-1.25.8-3.69,4.79-3.58,1.3.04,2.58.22,3.84.53l-.45,2.22c-1.15-.29-2.33-.47-3.51-.51-1.16,0-2,.36-2.09,1.44,0,.92.69,1.4,2.47,2.12s4.36,1.7,4.24,4.54c-.08,1.8-1.25,3.77-4.89,3.72-1.48-.01-2.95-.23-4.37-.65l.54-2.24Z" fill="#023037"/>
      <path d="m14.79,44.64c-.3.15-.43.51-.29.81.06.13.16.23.29.29l11.68,5.48c.15.08.33.12.5.12v-12.24c-.18,0-.35.04-.51.11l-11.67,5.43Z" fill="#f47626"/>
      <path d="m27.01,39.09v12.21c.18,0,.36-.03.53-.11l11.7-5.46c.21-.1.35-.32.35-.55,0-.24-.14-.45-.35-.55l-11.72-5.42c-.16-.07-.33-.11-.51-.12Z" fill="#f78c27"/>
      <path d="m14.47,28.63c0,.24.14.45.35.55l11.65,5.48c.16.07.33.11.5.11.17,0,.34-.01.5-.07l.33-.15,11.43-5.36c.3-.14.43-.49.29-.8-.06-.13-.16-.23-.29-.29l-11.71-5.45c-.32-.14-.68-.14-1,0l-11.73,5.43c-.2.11-.32.32-.32.55Z" fill="#2cbbaa"/>
      <path d="m27.01,35.46v3.63c-.18,0-.35.04-.51.11l-11.71,5.44c-.21.1-.35.31-.35.55v-16.56c0,.24.14.45.35.55l11.68,5.48c.16.07.33.11.5.11.17,0,.34-.01.5-.07h0c-.41.17-.46.34-.46.76Z" fill="#d2d2d2"/>
      <path d="m91.94,57.37v-5.63h1v7.33h-.9l-3.74-5.62v5.62h-1v-7.33h.9l3.74,5.63Z" fill="#023037"/>
      <path d="m99.1,56.83h-4c.04.42.23.82.54,1.12.3.28.69.42,1.09.41.53.03,1.04-.24,1.31-.7h.93c-.18.44-.47.81-.86,1.08-.4.3-.89.46-1.39.45-.44,0-.87-.13-1.25-.36-.4-.24-.72-.59-.92-1-.23-.44-.35-.93-.34-1.42-.03-.47.06-.94.26-1.37.22-.41.54-.76.93-1,.38-.24.81-.36,1.26-.36.44,0,.87.11,1.24.35.37.23.67.55.88.94.23.41.35.86.36,1.33,0,.18-.01.35-.04.53Zm-3.46-1.88c-.31.3-.51.71-.56,1.14h3.18c-.04-.42-.22-.82-.51-1.13-.26-.28-.62-.44-1-.44-.41-.02-.82.14-1.11.43Z" fill="#023037"/>
      <path d="m102.4,56.38l1.83,2.69h-1.06l-1.35-2.05-1.35,2.05h-1l1.82-2.69-1.72-2.58h1l1.26,2,1.25-2h1l-1.68,2.58Z" fill="#023037"/>
      <path d="m106.04,58.72c-.31-.36-.47-.82-.44-1.29v-2.8h-.9v-.79h.4c.17,0,.34-.05.47-.17.12-.12.18-.29.17-.46v-.79h.73v1.38h1.2v.83h-1.2v2.77c-.01.26.06.51.22.71.16.16.38.24.61.23.13,0,.25-.02.37-.07v.83c-.18.06-.36.09-.55.09-.41,0-.8-.17-1.08-.47Z" fill="#023037"/>
      <path d="m112.47,60.83c-.58-.27-1.01-.78-1.17-1.39h.91c.08.25.26.46.49.58.27.16.58.23.89.22.37,0,.73-.13,1-.38.26-.27.4-.63.39-1v-.7h0c-.37.47-.93.75-1.53.76-.42,0-.83-.12-1.19-.34-.37-.23-.67-.55-.87-.94-.22-.4-.33-.85-.32-1.31,0-.46.1-.92.32-1.33.2-.38.5-.71.86-.94.36-.23.77-.34,1.19-.34.35,0,.7.08,1,.26.23.13.43.3.59.51h0l.2-.66h.68v5c.02.61-.21,1.2-.64,1.63-.46.42-1.08.64-1.7.61-.38,0-.76-.08-1.1-.24Zm1.79-3c.24-.16.43-.38.56-.64.14-.27.22-.58.21-.89,0-.32-.07-.63-.21-.91-.12-.26-.32-.48-.56-.64-.46-.31-1.06-.31-1.52,0-.24.16-.43.38-.56.64-.14.28-.22.59-.21.91,0,.31.07.62.21.89.13.26.32.48.56.64.46.31,1.06.31,1.52,0Z" fill="#023037"/>
      <path d="m121.99,56.83h-4c.04.43.23.82.54,1.12.29.28.69.42,1.09.41.53.03,1.03-.24,1.3-.7h.94c-.18.44-.47.81-.86,1.08-.4.3-.89.46-1.39.45-.93,0-1.78-.52-2.21-1.34-.23-.44-.35-.93-.34-1.42,0-.49.12-.96.35-1.39.22-.41.54-.76.93-1,.38-.24.81-.36,1.26-.36.44,0,.87.11,1.24.35.37.23.67.55.87.94.22.41.34.87.33,1.33,0,.18-.01.36-.05.53Zm-3.45-1.88c-.32.3-.52.71-.57,1.14h3.18c-.03-.42-.21-.82-.51-1.13-.26-.28-.62-.44-1-.44-.41-.02-.81.14-1.1.43Z" fill="#023037"/>
      <path d="m123.12,59.07v-5.27h.68l.2.66h0c.35-.49.91-.77,1.51-.77.38,0,.76.1,1.09.29.32.19.59.48.76.81.19.38.28.79.27,1.21v3.07h-.92v-3c.02-.4-.11-.79-.37-1.09-.25-.28-.62-.43-1-.41-.38-.01-.74.14-1,.41-.26.3-.4.69-.38,1.09v3h-.84Z" fill="#023037"/>
      <path d="m133.65,56.83h-4c.04.42.23.82.54,1.12.3.28.69.42,1.09.41.53.03,1.03-.24,1.3-.7h.94c-.18.44-.47.81-.86,1.08-.4.3-.89.46-1.39.45-.93,0-1.78-.52-2.21-1.34-.23-.44-.35-.93-.34-1.42,0-.49.12-.96.35-1.39.22-.41.54-.76.93-1,.38-.24.81-.36,1.26-.36.44,0,.87.11,1.24.35.37.23.67.55.88.94.21.41.32.87.32,1.33,0,.18-.01.36-.05.53Zm-3.45-1.88c-.31.3-.51.71-.56,1.14h3.18c-.04-.42-.22-.82-.51-1.13-.26-.28-.62-.43-1-.44-.41-.02-.82.14-1.11.43Z" fill="#023037"/>
      <path d="m134.79,59.07v-5.27h.68l.2.66h0c.15-.21.34-.39.56-.52.23-.17.51-.25.8-.25.14-.02.27-.02.41,0v.91c-.13-.03-.27-.05-.41-.05-.38-.01-.74.14-1,.41-.27.31-.4.7-.38,1.11v3h-.86Z" fill="#023037"/>
      <path d="m141.23,53.95c.3.17.55.42.71.72.18.32.27.69.26,1.06v3.34h-.68l-.19-.66h-.05c-.16.22-.37.41-.61.54-.3.17-.65.26-1,.24-.32,0-.63-.07-.92-.21-.26-.13-.47-.33-.62-.57-.15-.24-.22-.52-.22-.8,0-.32.1-.63.3-.88.22-.27.51-.47.84-.59.39-.15.81-.22,1.23-.21h1v-.24c.02-.31-.09-.62-.31-.85-.21-.22-.51-.33-.81-.32-.27-.02-.54.07-.75.24-.18.16-.31.38-.35.62h-.91c.04-.3.14-.59.31-.84.17-.27.42-.48.7-.62.31-.16.65-.24,1-.23.37-.01.74.08,1.07.26Zm-.34,4.06c.28-.26.42-.62.4-1v-.4h-.93c-.39-.02-.78.06-1.13.25-.25.13-.4.39-.4.67,0,.23.09.45.27.6.21.16.47.24.74.22.38.03.76-.09,1.05-.34Z" fill="#023037"/>
      <path d="m144.25,58.72c-.3-.36-.46-.82-.43-1.29v-2.8h-.9v-.79h.4c.17,0,.34-.05.47-.17.12-.12.18-.29.17-.46v-.79h.76v1.38h1.2v.83h-1.2v2.77c-.01.26.06.51.22.71.16.16.38.24.61.23.13,0,.25-.02.37-.07v.83c-.18.06-.36.09-.55.09-.42.01-.83-.16-1.12-.47Z" fill="#023037"/>
      <path d="m146.91,52.85c-.11-.11-.16-.26-.16-.41,0-.15.05-.3.16-.41.11-.1.25-.15.4-.15.15,0,.3.05.42.15.11.11.17.26.16.41,0,.15-.06.3-.17.41-.11.11-.26.17-.41.17-.15,0-.3-.06-.4-.17Zm.86,6.22h-.91v-5.27h.91v5.27Z" fill="#023037"/>
      <path d="m150.12,58.83c-.39-.24-.72-.59-.93-1-.23-.43-.35-.91-.35-1.4,0-.49.12-.96.35-1.39.22-.41.54-.76.93-1,.78-.48,1.76-.48,2.54,0,.4.24.72.59.94,1,.23.43.35.91.34,1.39,0,.49-.11.97-.34,1.4-.22.41-.54.76-.94,1-.78.48-1.76.48-2.54,0Zm2.09-.73c.26-.17.46-.4.6-.68.15-.31.23-.65.22-1,.01-.35-.06-.69-.22-1-.14-.27-.34-.5-.6-.67-.24-.16-.53-.24-.82-.24-.29,0-.58.08-.82.24-.26.17-.46.4-.6.67-.16.31-.23.65-.22,1,0,.35.07.69.22,1,.14.28.34.51.6.68.5.32,1.14.32,1.64,0h0Z" fill="#023037"/>
      <path d="m155.04,59.07v-5.27h.67l.2.66h.05c.16-.22.36-.4.59-.53.28-.16.6-.25.92-.24.38,0,.76.1,1.09.29.33.19.59.47.76.81.19.38.28.79.27,1.21v3.07h-.91v-3c.02-.4-.12-.79-.38-1.09-.25-.28-.62-.44-1-.41-.38-.01-.74.13-1,.41-.27.3-.41.69-.39,1.09v3h-.87Z" fill="#023037"/>
      <path d="m164.56,58.83c-.39-.24-.72-.59-.93-1-.23-.43-.35-.91-.34-1.4,0-.48.11-.96.34-1.39.22-.41.54-.76.93-1,.38-.24.82-.36,1.27-.36.39,0,.77.09,1.11.28.33.19.61.44.83.75.21.3.36.64.43,1h-.91c-.08-.33-.27-.62-.52-.84-.26-.23-.6-.34-.94-.33-.29,0-.57.08-.81.24-.26.16-.47.39-.61.67-.16.31-.23.65-.22,1,0,.35.07.69.22,1,.14.28.34.51.6.68.24.16.53.24.82.24.34.01.68-.1.94-.33.25-.22.44-.51.52-.84h.91c-.07.36-.22.7-.43,1-.22.31-.5.56-.83.75-.34.19-.72.29-1.11.28-.45,0-.89-.15-1.27-.4Z" fill="#023037"/>
      <path d="m170.22,58.83c-.39-.24-.72-.59-.93-1-.23-.43-.35-.91-.35-1.4,0-.49.12-.96.35-1.39.22-.41.54-.76.93-1,.78-.48,1.76-.48,2.54,0,.4.24.72.59.94,1,.23.43.35.91.34,1.39,0,.49-.11.97-.34,1.4-.21.41-.54.76-.94,1-.78.48-1.76.48-2.54,0Zm2.09-.73c.26-.17.46-.4.6-.68.15-.31.23-.65.22-1,.01-.35-.06-.69-.22-1-.14-.27-.34-.5-.6-.67-.5-.32-1.13-.32-1.63,0-.26.16-.47.39-.61.67-.16.31-.23.65-.22,1,0,.35.07.69.22,1,.14.28.34.51.6.68.5.32,1.14.32,1.64,0Z" fill="#023037"/>
      <path d="m181.34,53.95c.28.19.5.45.64.76.16.36.24.76.23,1.16v3.2h-.9v-3.18c.02-.36-.08-.71-.3-1-.35-.43-.97-.5-1.41-.15-.06.05-.11.1-.15.15-.23.28-.35.64-.32,1v3.18h-.91v-3.18c.02-.36-.08-.71-.29-1-.19-.23-.48-.36-.78-.35-.3,0-.6.13-.79.36-.22.28-.34.64-.32,1v3.18h-.9v-5.28h.67l.2.66h.05c.13-.2.3-.38.5-.52.23-.17.51-.26.79-.25.36-.02.71.08,1,.29.23.17.41.4.54.65.16-.26.36-.48.61-.65.29-.2.64-.3,1-.29.3.01.59.1.84.26Z" fill="#023037"/>
      <path d="m189.79,53.95c.28.19.5.45.64.76.16.37.24.76.23,1.16v3.2h-.9v-3.18c.02-.36-.08-.71-.3-1-.19-.22-.47-.35-.77-.35-.31,0-.61.13-.8.37-.23.28-.34.64-.32,1v3.18h-.9v-3.2c.02-.36-.08-.71-.3-1-.19-.22-.47-.35-.77-.35-.3,0-.6.13-.79.36-.23.28-.34.64-.32,1v3.18h-.9v-5.28h.67l.2.66h0c.13-.2.3-.38.5-.52.23-.17.51-.26.79-.25.34-.01.67.09.95.29.23.17.42.39.55.65.15-.26.36-.48.61-.65.29-.2.64-.31,1-.29.33,0,.65.09.93.26Z" fill="#023037"/>
      <path d="m196.64,56.83h-4c.04.42.23.82.54,1.12.3.28.69.43,1.1.41.53.02,1.03-.25,1.3-.7h.89c-.17.44-.47.81-.86,1.08-.4.3-.88.46-1.38.45-.93,0-1.79-.51-2.22-1.34-.23-.44-.34-.93-.33-1.42,0-.48.11-.96.34-1.39.22-.41.54-.76.93-1,.38-.24.82-.36,1.27-.36.44,0,.86.11,1.23.35.37.23.68.55.88.94.21.41.32.87.32,1.33.02.18.01.35,0,.53Zm-3.46-1.88c-.31.31-.51.71-.56,1.14h3.18c-.04-.42-.22-.82-.51-1.13-.26-.28-.62-.44-1-.44-.41-.02-.82.14-1.11.43h0Z" fill="#023037"/>
      <path d="m197.77,59.07v-5.27h.7l.2.66h.05c.15-.21.34-.38.56-.52.24-.17.52-.26.81-.25.14-.02.27-.02.41,0v.91c-.13-.03-.27-.05-.41-.05-.38-.01-.74.13-1,.41-.27.3-.41.7-.39,1.11v3h-.93Z" fill="#023037"/>
      <path d="m202.14,58.83c-.39-.24-.72-.59-.93-1-.23-.43-.35-.91-.34-1.4,0-.48.11-.96.34-1.39.22-.41.54-.76.93-1,.38-.24.83-.36,1.28-.36.39,0,.76.09,1.1.28.33.18.61.44.83.75.21.3.36.64.43,1h-.9c-.09-.32-.27-.61-.52-.84-.26-.22-.6-.34-.94-.33-.29,0-.58.08-.82.24-.26.17-.46.4-.6.67-.16.31-.24.65-.23,1-.01.35.07.69.23,1,.14.27.34.51.59.68.27.14.58.2.88.17.34.01.68-.11.94-.33.25-.23.43-.52.52-.84h.9c-.07.36-.22.7-.43,1-.22.31-.5.57-.83.75-.34.19-.71.29-1.1.28-.47.02-.93-.09-1.33-.33Z" fill="#023037"/>
      <path d="m211.47,56.83h-4c.04.43.24.82.55,1.12.29.28.69.43,1.09.41.53.02,1.03-.25,1.3-.7h.93c-.17.44-.47.81-.86,1.08-.4.3-.88.46-1.38.45-.46,0-.9-.12-1.29-.36-.4-.24-.72-.58-.93-1-.23-.44-.34-.93-.33-1.42,0-.48.11-.96.34-1.39.22-.41.54-.76.93-1,.38-.24.82-.36,1.27-.36.44,0,.86.11,1.23.35.38.23.68.55.88.94.2.42.29.88.27,1.35.02.18.02.35,0,.53Zm-3.46-1.88c-.31.31-.51.71-.56,1.14h3.18c-.04-.42-.22-.82-.51-1.13-.26-.28-.62-.44-1-.44-.42-.02-.82.14-1.12.43h0Z" fill="#023037"/>
    </g>
    <g>
      <g>
        <path d="m295.86,28.3v16.22h-2.6v-16.22h2.6Z" fill="#002940"/>
        <path d="m342.74,37.81v6.7h-2.6v-6.27c.05-1.44-1.07-2.65-2.52-2.71-1.44-.05-2.65,1.07-2.71,2.52,0,.04,0,.08,0,.12v6.33h-2.6v-6.27c.1-1.39-.95-2.6-2.34-2.7-.09,0-.19,0-.28,0-1.45,0-2.61,1.19-2.6,2.64,0,.03,0,.06,0,.09v6.25h-2.6v-11.16h2.6v1.3c.83-.97,2.04-1.52,3.32-1.51,1.48-.04,2.89.68,3.73,1.9.92-1.22,2.37-1.93,3.9-1.9,2.49-.1,4.6,1.83,4.7,4.33,0,.11,0,.23,0,.34Z" fill="#002940"/>
        <path d="m351.28,33.14v2.75c-2.51-.17-3.77,1.12-3.77,2.83v5.79h-2.6v-11.16h2.6v1.58c.92-1.14,2.31-1.8,3.77-1.79Z" fill="#002940"/>
        <path d="m363.07,39.86h-8.8c.35,1.55,1.75,2.63,3.34,2.55,1.3.05,2.51-.65,3.12-1.8l2.17.91c-.96,1.98-2.97,3.22-5.16,3.2-3.17.14-5.86-2.31-6-5.48,0-.11,0-.21,0-.32-.07-3.13,2.42-5.73,5.56-5.79.08,0,.16,0,.23,0,3.09-.04,5.62,2.42,5.67,5.51,0,.41-.03.82-.12,1.22Zm-8.78-1.96h6.44c-.36-1.44-1.66-2.45-3.14-2.44-1.53-.05-2.89.96-3.3,2.44h0Z" fill="#002940"/>
        <path d="m376.25,33.36v11.16h-2.6v-1.5c-.93,1.11-2.31,1.74-3.75,1.71-3.12,0-5.44-2.38-5.44-5.79s2.32-5.79,5.44-5.79c1.45-.03,2.83.6,3.75,1.71v-1.49h2.6Zm-2.6,5.58c.07-1.83-1.35-3.37-3.18-3.44-.04,0-.08,0-.11,0-1.9.11-3.35,1.74-3.24,3.63.1,1.75,1.49,3.14,3.24,3.24,1.83,0,3.31-1.5,3.3-3.33,0-.04,0-.07,0-.11h0Z" fill="#002940"/>
        <path d="m378.07,38.93c-.07-3.13,2.42-5.73,5.55-5.79.07,0,.15,0,.22,0,2.38-.06,4.54,1.36,5.44,3.57l-2.41.82c-.52-1.19-1.68-1.96-2.97-1.99-1.77-.02-3.22,1.41-3.24,3.18,0,.07,0,.14,0,.21-.08,1.79,1.31,3.31,3.1,3.39,1.41.06,2.7-.79,3.19-2.12l2.34.91c-.88,2.22-3.05,3.66-5.44,3.61-3.12.07-5.71-2.39-5.79-5.51,0-.09,0-.19,0-.28Z" fill="#002940"/>
        <path d="m401.73,38.05v6.46h-2.6v-6.05c.09-1.52-1.07-2.83-2.59-2.92-.09,0-.18,0-.28,0-1.56-.03-2.86,1.21-2.89,2.78,0,.06,0,.12,0,.18v6.01h-2.6v-16.22h2.6v6.51c1.7-1.99,4.69-2.23,6.69-.53,1.1.94,1.71,2.33,1.66,3.78h0Z" fill="#002940"/>
        <path d="m282.12,34.15h0v-5.85h-2.6v16.22h2.6v-.8h0c.95.6,2.06.91,3.18.9.75,0,1.49-.13,2.19-.4,2.92-1.32,4.21-4.76,2.89-7.68-.58-1.29-1.61-2.31-2.9-2.89-.7-.27-1.43-.4-2.18-.4-1.12-.01-2.23.3-3.18.9h0m2.88,8.18c-1.21.02-2.32-.65-2.88-1.72-.55-1.05-.55-2.31,0-3.36.56-1.07,1.68-1.73,2.88-1.72,1.87.05,3.35,1.62,3.3,3.49-.05,1.8-1.5,3.25-3.3,3.3Z" fill="#002940"/>
        <path d="m297.79,38.93c-.05-3.25,2.54-5.94,5.79-5.99s5.94,2.54,5.99,5.79-2.54,5.94-5.79,5.99c-.03,0-.06,0-.1,0-3.16.1-5.79-2.38-5.89-5.54,0-.09,0-.17,0-.26Zm5.89,3.4c1.88.06,3.44-1.42,3.5-3.3.06-1.88-1.42-3.44-3.3-3.5-1.88-.06-3.44,1.42-3.5,3.3,0,.03,0,.07,0,.1-.05,1.82,1.38,3.34,3.2,3.39.03,0,.06,0,.09,0h0Z" fill="#002940"/>
        <path d="m310.88,38.93c-.06-3.26,2.54-5.94,5.79-6s5.94,2.54,6,5.79-2.54,5.94-5.79,6c-.04,0-.07,0-.11,0-3.16.1-5.79-2.38-5.89-5.54,0-.09,0-.17,0-.26Zm5.89,3.4c1.88.06,3.44-1.42,3.5-3.29s-1.42-3.44-3.29-3.5c-1.88-.06-3.44,1.42-3.5,3.29,0,.03,0,.07,0,.1-.05,1.82,1.38,3.34,3.2,3.39.03,0,.06,0,.1,0h0Z" fill="#002940"/>
      </g>
      <ellipse cx="253.98" cy="37.59" rx="17.94" ry="17.89" fill="#fed500"/>
      <g>
        <path d="m257.62,33.87l-.88,2.23c.96.61,1.53,1.67,1.51,2.81-.05,1.76-1.52,3.14-3.28,3.09-1.76-.05-3.14-1.52-3.09-3.28.05-1.67,1.38-3.02,3.04-3.09l.83-2.29c-3-.48-5.82,1.55-6.31,4.55-.05.28-.07.57-.07.86h0v5.75h2.51v-.9c.95.6,2.06.91,3.18.9,3.06.09,5.61-2.32,5.7-5.37,0-.08,0-.15,0-.23.03-2.15-1.2-4.12-3.14-5.04Z" fill="#002940"/>
        <path d="m249.37,33.6c.72-.73,1.57-1.31,2.51-1.7v-3.6h-2.51v5.3Z" fill="#002940"/>
      </g>
    </g>
  </g>
</svg>
